<svg width="20" height="19" viewBox="0 0 20 19" fill="none" xmlns="http://www.w3.org/2000/svg">
<path d="M18 9.5C18 11.2186 17.4098 12.885 16.3281 14.2205C15.2465 15.556 13.739 16.4794 12.0579 16.8364C10.3768 17.1934 8.6241 16.9622 7.09308 16.1815C5.56205 15.4009 4.34558 14.1181 3.6472 12.5478C2.94881 10.9775 2.8109 9.21504 3.25652 7.55525C3.70215 5.89546 4.70428 4.43906 6.09523 3.42974C7.48619 2.42042 9.18158 1.91942 10.8977 2.01055C12.6139 2.10169 14.2467 2.77945 15.5229 3.93041L13.641 6.01712C12.8429 5.29738 11.8219 4.87356 10.7487 4.81656C9.67554 4.75957 8.61535 5.07287 7.74553 5.70404C6.87571 6.3352 6.24904 7.24595 5.97038 8.28388C5.69171 9.32181 5.77796 10.424 6.21468 11.4059C6.6514 12.3879 7.41211 13.19 8.36952 13.6782C9.32693 14.1664 10.423 14.311 11.4742 14.0877C12.5254 13.8645 13.4681 13.287 14.1445 12.4519C14.821 11.6168 15.19 10.5747 15.19 9.5H18Z" fill="#FF5A60"/>
<path d="M10.5 8.42857H18V9.76786L17.0003 11.1071H10.5V8.42857Z" fill="#FF5A60"/>
</svg>
