<svg width="20" height="20" viewBox="0 0 20 20" fill="none" xmlns="http://www.w3.org/2000/svg">
<rect width="20" height="20" fill="white"/>
<mask id="path-1-inside-1_22_64" fill="white">
<path d="M18 9.76415C18 12.9476 14.4183 15.5283 10 15.5283C5.58172 15.5283 2 12.9476 2 9.76415C2 6.5807 5.58172 4 10 4C14.4183 4 18 6.5807 18 9.76415ZM2.8269 9.76415C2.8269 12.6186 6.03841 14.9325 10 14.9325C13.9616 14.9325 17.1731 12.6186 17.1731 9.76415C17.1731 6.90975 13.9616 4.5958 10 4.5958C6.03841 4.5958 2.8269 6.90975 2.8269 9.76415Z"/>
</mask>
<path d="M18 9.76415C18 12.9476 14.4183 15.5283 10 15.5283C5.58172 15.5283 2 12.9476 2 9.76415C2 6.5807 5.58172 4 10 4C14.4183 4 18 6.5807 18 9.76415ZM2.8269 9.76415C2.8269 12.6186 6.03841 14.9325 10 14.9325C13.9616 14.9325 17.1731 12.6186 17.1731 9.76415C17.1731 6.90975 13.9616 4.5958 10 4.5958C6.03841 4.5958 2.8269 6.90975 2.8269 9.76415Z" stroke="#FF5A60" stroke-width="8" mask="url(#path-1-inside-1_22_64)"/>
<path d="M4.54706 10.0898C4.44275 9.59514 4.51232 9.09225 4.75093 8.61611C4.98953 8.13997 5.39145 7.70201 5.9287 7.3327C6.46595 6.96339 7.12563 6.67161 7.86184 6.47766C8.59806 6.28371 9.39312 6.19224 10.1917 6.20963L10.1551 6.86566C9.50913 6.85159 8.86605 6.92557 8.27057 7.08245C7.67509 7.23933 7.1415 7.47533 6.70695 7.77404C6.2724 8.07275 5.94732 8.427 5.75432 8.81212C5.56133 9.19725 5.50506 9.604 5.58943 10.0041L4.54706 10.0898Z" fill="#FF5A60"/>
<path d="M5.35598 16.5692C6.03125 16.2611 5.9589 15.0928 5.83832 14.5472L8.00883 15.3175C8.08922 15.2533 8.25 15.1597 8.625 15.2822C8.90463 15.3735 6.56182 16.5692 5.9589 16.8581C5.35598 17.147 4.51189 16.9544 5.35598 16.5692Z" stroke="#FF5A60" stroke-width="0.5"/>
</svg>
